<svg version="1" xmlns="http://www.w3.org/2000/svg" width="416" height="416" viewBox="0 0 312.000000 312.000000"><path d="M139.2 138.2l.3 61.3 2.3 5.7c4.8 11.9 15.3 22.3 26.9 26.9 4.7 1.8 7.8 2.3 16.3 2.3 12 .1 18.7-1.9 26.8-7.7l4.7-3.4 4.8 3.3c28.8 19.9 68.1 2.2 72.7-32.6.5-4.1 1-32.1 1-62.3V77h-32v58.1c0 57.3 0 58.2-2.1 61.6-5.9 9.5-19.2 9.5-26.3-.1-2.1-2.7-2.1-3.9-2.4-61.2l-.3-58.4H201l-.2 58.4c-.3 57.3-.3 58.5-2.4 61.2-3.1 4.3-6.7 6.5-11.2 7.1-5.7.8-12.1-2.5-15-7.6-2.2-3.9-2.2-4.1-2.2-61.5V77h-31.1l.3 61.2zM63.6 113.6c-15.7 3.8-31.1 16.4-38.4 31.5-5.5 11.1-7.2 18.4-7.3 29.9-.1 11.3 1.2 17 5.9 27 6.9 14.7 23.9 28.1 39.9 31.5 14 3 29.1.9 41.6-5.7 5.9-3.2 19.7-15.3 19.7-17.3 0-.6-4.8-5.8-10.6-11.5-9.7-9.6-10.7-10.3-11.7-8.6-5.4 8.9-15.3 14.6-25.3 14.6-8.9 0-15-2.5-21-8.5-6.8-6.7-8.8-12.7-8.2-23.9.6-9.9 3.3-16.1 9.9-22.8 9.8-9.8 26.1-10.3 36.7-1.2 2.3 1.9 5.4 5.6 6.9 8.1l2.6 4.5 10.5-10.5c8.8-8.9 10.3-10.8 9.7-12.7-.4-1.2-3.7-5.3-7.4-9-7.3-7.4-19-13.9-28.9-15.9-7.1-1.5-17.4-1.3-24.6.5z"/></svg>