<?xml version="1.0" encoding="UTF-8" standalone="no"?>
<svg
   xmlns:dc="http://purl.org/dc/elements/1.1/"
   xmlns:cc="http://creativecommons.org/ns#"
   xmlns:rdf="http://www.w3.org/1999/02/22-rdf-syntax-ns#"
   xmlns:svg="http://www.w3.org/2000/svg"
   xmlns="http://www.w3.org/2000/svg"
   xmlns:sodipodi="http://sodipodi.sourceforge.net/DTD/sodipodi-0.dtd"
   xmlns:inkscape="http://www.inkscape.org/namespaces/inkscape"
   width="100"
   height="100"
   version="1.1"
   viewBox="0 0 26.458333 26.458333"
   id="svg30"
   sodipodi:docname="favicon.svg"
   inkscape:export-filename="/home/jack/Projects/codewof/codewof/static/img/favicon.png"
   inkscape:export-xdpi="299.51999"
   inkscape:export-ydpi="299.51999"
   inkscape:version="0.92.3 (2405546, 2018-03-11)">
  <metadata
     id="metadata36">
    <rdf:RDF>
      <cc:Work
         rdf:about="">
        <dc:format>image/svg+xml</dc:format>
        <dc:type
           rdf:resource="http://purl.org/dc/dcmitype/StillImage" />
        <dc:title></dc:title>
      </cc:Work>
    </rdf:RDF>
  </metadata>
  <defs
     id="defs34" />
  <sodipodi:namedview
     pagecolor="#fbe1a4"
     bordercolor="#666666"
     borderopacity="1"
     objecttolerance="10"
     gridtolerance="10"
     guidetolerance="10"
     inkscape:pageopacity="1"
     inkscape:pageshadow="2"
     inkscape:window-width="3240"
     inkscape:window-height="2040"
     id="namedview32"
     showgrid="false"
     units="px"
     inkscape:zoom="9.2293198"
     inkscape:cx="77.742311"
     inkscape:cy="51.49222"
     inkscape:window-x="0"
     inkscape:window-y="0"
     inkscape:window-maximized="1"
     inkscape:current-layer="g26"
     inkscape:pagecheckerboard="false"
     borderlayer="false" />
  <g
     transform="translate(-23.864,-18.079667)"
     id="g28">
    <g
       aria-label="{code:WOF}"
       id="g26">
      <g
         id="g42"
         transform="matrix(0.90517586,0,0,0.90517586,3.5173277,2.9688332)"
         style="fill:#f6b20f;fill-opacity:1">
        <g
           transform="matrix(0.691476,0,0,0.691476,-1.7603427,9.8040613)"
           id="g12"
           class="logo_text"
           style="fill:#f6b20f;fill-opacity:1">
          <path
             inkscape:connector-curvature="0"
             id="path4"
             d="m 52.08,28.875 -2.9468,2.9616 q -0.22101,-0.61883 -0.6041,-1.1051 -0.38309,-0.50096 -0.86931,-0.83984 -0.47149,-0.33888 -1.0314,-0.51569 -0.5599,-0.17681 -1.1493,-0.17681 -0.82511,0 -1.5618,0.33888 -0.72197,0.33888 -1.2671,0.95772 -0.53043,0.6041 -0.83984,1.4439 -0.30941,0.8398 -0.30942,1.8565 0,0.82511 0.30942,1.5471 0.30942,0.72197 0.83984,1.2671 0.54516,0.54516 1.2671,0.85458 0.7367,0.30942 1.5618,0.30942 0.58936,0 1.1345,-0.16208 0.54516,-0.16208 1.0167,-0.45676 0.48622,-0.30942 0.85458,-0.7367 0.38309,-0.44202 0.61883,-0.97245 l 2.9468,2.9616 q -0.5599,0.79564 -1.2966,1.4292 -0.72197,0.63357 -1.5765,1.0756 -0.83984,0.44202 -1.7828,0.66303 -0.92825,0.23575 -1.9154,0.23575 -1.665,0 -3.1384,-0.61883 -1.4587,-0.63357 -2.5637,-1.7239 -1.0903,-1.0903 -1.7239,-2.549 -0.6336,-1.4587 -0.63357,-3.1236 0,-1.8123 0.63357,-3.3888 0.63357,-1.5765 1.7239,-2.7405 1.1051,-1.1787 2.5637,-1.8565 1.4734,-0.67777 3.1384,-0.67777 0.98718,0 1.9302,0.25048 0.95772,0.25048 1.8123,0.7367 0.86931,0.47149 1.5913,1.164 0.7367,0.6925 1.2671,1.5913 z"
             style="fill:#f6b20f;fill-opacity:1" />
        </g>
        <g
           transform="matrix(0.691476,0,0,0.691476,-43.464232,9.8040613)"
           id="g22"
           class="logo_text"
           style="fill:#f6b20f;fill-opacity:1">
          <path
             inkscape:connector-curvature="0"
             id="path16"
             d="m 135.27,35.476 q 0,1.3113 -0.50096,2.4753 -0.48623,1.1493 -1.3555,2.0186 -0.85458,0.85458 -2.0186,1.3555 -1.1493,0.48622 -2.4606,0.48622 -1.1787,0 -2.269,-0.41256 -1.0756,-0.41255 -1.9449,-1.2082 -0.86931,0.79564 -1.9596,1.2082 -1.0903,0.41256 -2.269,0.41256 -1.3113,0 -2.4753,-0.48622 -1.1492,-0.50096 -2.0186,-1.3555 -0.85457,-0.86931 -1.3555,-2.0186 -0.48623,-1.164 -0.48623,-2.4753 V 20.388 h 4.2287 v 15.088 q 0,0.44202 0.16207,0.83984 0.16208,0.38309 0.44203,0.67777 0.29468,0.27995 0.67776,0.44202 0.38309,0.16208 0.82511,0.16208 0.44203,0 0.82511,-0.16208 0.38309,-0.16208 0.66304,-0.44202 0.29468,-0.29468 0.45675,-0.67777 0.16208,-0.39782 0.16208,-0.83984 V 20.388 h 4.2287 v 15.088 q 0,0.44202 0.16208,0.83984 0.16207,0.38309 0.44202,0.67777 0.29468,0.27995 0.67777,0.44202 0.38308,0.16208 0.82511,0.16208 0.44202,0 0.82511,-0.16208 0.38308,-0.16208 0.66303,-0.44202 0.29468,-0.29468 0.45676,-0.67777 0.17681,-0.39782 0.17681,-0.83984 V 20.388 h 4.214 z"
             style="fill:#f6b20f;fill-opacity:1" />
        </g>
      </g>
    </g>
  </g>
</svg>
