<?xml version="1.0" encoding="UTF-8"?>
<svg xmlns="http://www.w3.org/2000/svg" xmlns:xlink="http://www.w3.org/1999/xlink" width="30px" height="30px" viewBox="0 0 30 30" version="1.1">
<g id="surface193021">
<path style=" stroke:none;fill-rule:nonzero;fill:rgb(100%,100%,100%);fill-opacity:1;" d="M 15 3 C 11.6875 3 9 5.6875 9 9 L 9 10 C 9 13.3125 11.6875 16 15 16 C 18.3125 16 21 13.3125 21 10 L 21 9 C 21 5.6875 18.3125 3 15 3 Z M 14.996094 19 C 10.992188 19 5.851562 21.167969 4.371094 23.089844 C 3.460938 24.277344 4.328125 26 5.828125 26 L 24.171875 26 C 25.667969 26 26.539062 24.277344 25.625 23.089844 C 24.144531 21.167969 19.003906 19 15 19 Z M 14.996094 19 "/>
</g>
</svg>
